<svg width="12" height="13" viewBox="0 0 12 13" fill="none" xmlns="http://www.w3.org/2000/svg">
<g clip-path="url(#clip0_29_252)">
<path d="M6.16666 0C2.94503 0 0.333328 2.79309 0.333328 6.23847C0.333328 9.16406 2.21679 11.619 4.75756 12.2933V8.14494H3.55473V6.23847H4.75756V5.41699C4.75756 3.29366 5.65613 2.30948 7.60539 2.30948C7.97499 2.30948 8.61269 2.38709 8.87356 2.46444V4.1925C8.73589 4.17703 8.49673 4.16929 8.19969 4.16929C7.24326 4.16929 6.87366 4.55683 6.87366 5.56421V6.23847H8.77906L8.45169 8.14494H6.87366V12.4313C9.76209 12.0582 12.0002 9.42807 12.0002 6.23847C12 2.79309 9.38829 0 6.16666 0Z" fill="#2e2e2e95"/>
</g>
<defs>
<clipPath id="clip0_29_252">
<rect width="11.6667" height="12.4769" fill="white" transform="translate(0.333328)"/>
</clipPath>
</defs>
</svg>
