<svg width="12" height="13" viewBox="0 0 12 13" fill="none" xmlns="http://www.w3.org/2000/svg">
<g clip-path="url(#clip0_29_254)">
<path d="M5.99999 1.12341C7.55858 1.12341 7.74315 1.13072 8.35611 1.15996C8.92577 1.18677 9.23339 1.28912 9.43847 1.37441C9.70963 1.48651 9.90559 1.62298 10.1084 1.83986C10.3135 2.05918 10.4388 2.26632 10.5436 2.55631C10.6234 2.77563 10.7191 3.10705 10.7441 3.71384C10.7715 4.3718 10.7783 4.56919 10.7783 6.23359C10.7783 7.90043 10.7715 8.09782 10.7441 8.75335C10.7191 9.36257 10.6234 9.69156 10.5436 9.91088C10.4388 10.2009 10.3112 10.4104 10.1084 10.6273C9.90331 10.8466 9.70963 10.9807 9.43847 11.0928C9.23339 11.1781 8.92349 11.2804 8.35611 11.3072C7.74088 11.3365 7.55631 11.3438 5.99999 11.3438C4.4414 11.3438 4.25683 11.3365 3.64387 11.3072C3.07421 11.2804 2.76659 11.1781 2.56151 11.0928C2.29035 10.9807 2.09439 10.8442 1.89159 10.6273C1.68651 10.408 1.56119 10.2009 1.45637 9.91088C1.37662 9.69156 1.28091 9.36014 1.25585 8.75335C1.22851 8.09539 1.22167 7.898 1.22167 6.23359C1.22167 4.56675 1.22851 4.36936 1.25585 3.71384C1.28091 3.10461 1.37662 2.77563 1.45637 2.55631C1.56119 2.26632 1.68879 2.05674 1.89159 1.83986C2.09667 1.62054 2.29035 1.48651 2.56151 1.37441C2.76659 1.28912 3.07649 1.18677 3.64387 1.15996C4.25683 1.13072 4.4414 1.12341 5.99999 1.12341ZM5.99999 0C4.41633 0 4.21809 0.0073107 3.59602 0.0365535C2.97623 0.0657963 2.55012 0.17302 2.18098 0.326545C1.79589 0.48738 1.47004 0.699391 1.14647 1.04787C0.820628 1.39391 0.622386 1.74238 0.471995 2.15178C0.32844 2.549 0.22818 3.00226 0.200836 3.6651C0.173492 4.33281 0.166656 4.54482 0.166656 6.23847C0.166656 7.93211 0.173492 8.14412 0.200836 8.8094C0.22818 9.47223 0.32844 9.92793 0.471995 10.3227C0.622386 10.7345 0.820628 11.083 1.14647 11.4291C1.47004 11.7751 1.79589 11.9896 2.1787 12.148C2.55012 12.3015 2.97395 12.4087 3.59374 12.4379C4.21581 12.4672 4.41405 12.4745 5.99771 12.4745C7.58137 12.4745 7.77961 12.4672 8.40168 12.4379C9.02147 12.4087 9.44758 12.3015 9.81672 12.148C10.1995 11.9896 10.5254 11.7751 10.8489 11.4291C11.1725 11.083 11.373 10.7345 11.5211 10.3251C11.6647 9.92793 11.765 9.47467 11.7923 8.81183C11.8197 8.14656 11.8265 7.93455 11.8265 6.2409C11.8265 4.54726 11.8197 4.33525 11.7923 3.66997C11.765 3.00714 11.6647 2.55144 11.5211 2.15666C11.3776 1.74238 11.1794 1.39391 10.8535 1.04787C10.5299 0.701827 10.2041 0.48738 9.82128 0.328982C9.44986 0.175457 9.02603 0.0682332 8.40624 0.0389904C7.78189 0.00731071 7.58365 0 5.99999 0Z" fill="#2e2e2e95"/>
<path d="M5.99999 3.03394C4.34569 3.03394 3.00357 4.46927 3.00357 6.23846C3.00357 8.00765 4.34569 9.44299 5.99999 9.44299C7.65429 9.44299 8.99641 8.00765 8.99641 6.23846C8.99641 4.46927 7.65429 3.03394 5.99999 3.03394ZM5.99999 8.31714C4.92675 8.31714 4.0563 7.38624 4.0563 6.23846C4.0563 5.09068 4.92675 4.15978 5.99999 4.15978C7.07323 4.15978 7.94367 5.09068 7.94367 6.23846C7.94367 7.38624 7.07323 8.31714 5.99999 8.31714Z" fill="#2e2e2e95"/>
<path d="M9.81445 2.90719C9.81445 3.32146 9.49999 3.65532 9.1149 3.65532C8.72753 3.65532 8.41536 3.31902 8.41536 2.90719C8.41536 2.49291 8.72981 2.15906 9.1149 2.15906C9.49999 2.15906 9.81445 2.49535 9.81445 2.90719Z" fill="#2e2e2e95"/>
</g>
<defs>
<clipPath id="clip0_29_254">
<rect width="11.6667" height="12.4769" fill="white" transform="translate(0.166656)"/>
</clipPath>
</defs>
</svg>
