<svg width="12" height="14" viewBox="0 0 12 14" fill="none" xmlns="http://www.w3.org/2000/svg">
<g clip-path="url(#clip0_29_255)">
<path d="M10.8031 0.891205H0.861328C0.385091 0.891205 0 1.29329 0 1.79042V12.4665C0 12.9636 0.385091 13.3681 0.861328 13.3681H10.8031C11.2793 13.3681 11.6667 12.9636 11.6667 12.4689V1.79042C11.6667 1.29329 11.2793 0.891205 10.8031 0.891205ZM3.46126 11.5234H1.72949V5.56762H3.46126V11.5234ZM2.59538 4.75613C2.03939 4.75613 1.59049 4.27606 1.59049 3.68389C1.59049 3.09173 2.03939 2.61166 2.59538 2.61166C3.14909 2.61166 3.59798 3.09173 3.59798 3.68389C3.59798 4.27362 3.14909 4.75613 2.59538 4.75613ZM9.94173 11.5234H8.21224V8.62837C8.21224 7.93872 8.20085 7.04925 7.31217 7.04925C6.41211 7.04925 6.27539 7.80226 6.27539 8.57963V11.5234H4.54818V5.56762H6.20703V6.38154H6.22982C6.45996 5.91366 7.02507 5.41897 7.86589 5.41897C9.61816 5.41897 9.94173 6.65204 9.94173 8.25552V11.5234Z" fill="#7B9597"/>
</g>
<defs>
<clipPath id="clip0_29_255">
<rect width="11.6667" height="12.4769" fill="white" transform="translate(0 0.891205)"/>
</clipPath>
</defs>
</svg>
