<svg width="19" height="16" viewBox="0 0 19 16" fill="none" xmlns="http://www.w3.org/2000/svg">
<path d="M0.456 10.272C0.456 6.368 2.696 2.72 5.64 0.671997L8.008 2.592C5.96 3.936 4.168 6.496 3.912 8.544C3.976 8.544 4.424 8.416 4.744 8.416C6.536 8.416 7.88 9.824 7.88 11.68C7.88 13.6 6.344 15.136 4.424 15.136C2.312 15.136 0.456 13.408 0.456 10.272ZM10.696 10.272C10.696 6.368 12.936 2.72 15.88 0.671997L18.248 2.592C16.2 3.936 14.408 6.496 14.152 8.544C14.28 8.544 14.728 8.416 14.984 8.416C16.776 8.416 18.12 9.824 18.12 11.68C18.12 13.6 16.584 15.136 14.664 15.136C12.552 15.136 10.696 13.408 10.696 10.272Z" fill="black"/>
</svg>
