<svg width="63" height="57" viewBox="0 0 63 57" fill="none" xmlns="http://www.w3.org/2000/svg">
<path d="M0 12.597V16.7038L44.5378 57H49.077L0 12.597Z" fill="#373535"/>
<path d="M0 22.0305V25.9635L34.3035 57H38.6505L0 22.0305Z" fill="#373535"/>
<path d="M0 49.7239V53.7567L3.5847 57H8.04195L0 49.7239Z" fill="#373535"/>
<path d="M0 31.2873V35.3941L23.8801 57H28.4193L0 31.2873Z" fill="#373535"/>
<path d="M0 3.16348V7.27319L54.9612 57H59.5035L0 3.16348Z" fill="#373535"/>
<path d="M0 40.7179V44.3973L13.9261 57H17.9928L0 40.7179Z" fill="#373535"/>
<path d="M6.92685 0H2.3877L63 54.8397V50.7329L6.92685 0Z" fill="#373535"/>
<path d="M38.2032 0H33.6641L63 26.5421V22.4352L38.2032 0Z" fill="#373535"/>
<path d="M58.7191 0H54.1768L63 7.98V3.87314L58.7191 0Z" fill="#373535"/>
<path d="M48.2926 0H44.0874L63 17.1086V13.3066L48.2926 0Z" fill="#373535"/>
<path d="M27.7767 0H23.2375L63 35.9755V31.8658L27.7767 0Z" fill="#373535"/>
<path d="M17.3534 0H12.8142L63 45.4062V41.2994L17.3534 0Z" fill="#373535"/>
</svg>
